<svg xmlns="http://www.w3.org/2000/svg" style="display:none">
  <symbol id="click" viewBox="0 0 24 24"><path fill="dodgerblue" d="M11.7 18q-2.4-.125-4.05-1.85T6 12q0-2.5 1.75-4.25T12 6q2.425 0 4.15 1.65T18 11.7l-2.1-.625q-.325-1.35-1.4-2.212T12 8q-1.65 0-2.825 1.175T8 12q0 1.425.863 2.5t2.212 1.4zm1.2 3.95q-.225.05-.45.05H12q-2.075 0-3.9-.788t-3.175-2.137T2.788 15.9T2 12t.788-3.9t2.137-3.175T8.1 2.788T12 2t3.9.788t3.175 2.137T21.213 8.1T22 12v.45q0 .225-.05.45L20 12.3V12q0-3.35-2.325-5.675T12 4T6.325 6.325T4 12t2.325 5.675T12 20h.3zm7.625.55l-4.275-4.275L15 22l-3-10l10 3l-3.775 1.25l4.275 4.275z"/></symbol>
  <symbol id="input" viewBox="0 0 433.632 433.632" xml:space="preserve"> <g> <path fill="#a205fdff" d="M411.999,130.626H73.567v-5.002c0-5.375,4.373-9.749,9.749-9.749h282.935c13.646,0,24.749-11.103,24.749-24.749 c0-13.647-11.103-24.75-24.749-24.75h-68.445c-4.143,0-7.5,3.358-7.5,7.5s3.357,7.5,7.5,7.5h68.445c5.376,0,9.749,4.374,9.749,9.75 c0,5.375-4.373,9.749-9.749,9.749H83.316c-13.646,0-24.749,11.103-24.749,24.749v5.002H21.634C9.705,130.626,0,140.332,0,152.26 v193.362c0,11.929,9.705,21.633,21.634,21.633h390.365c11.929,0,21.633-9.705,21.633-21.633V152.26 C433.632,140.332,423.928,130.626,411.999,130.626z M418.632,345.622c0,3.658-2.976,6.633-6.633,6.633H21.634 c-3.658,0-6.634-2.976-6.634-6.633V152.26c0-3.658,2.976-6.634,6.634-6.634h390.365c3.657,0,6.633,2.976,6.633,6.634V345.622z"/> <path d="M401.132,155.627H32.5c-4.143,0-7.5,3.358-7.5,7.5v171.628c0,4.142,3.357,7.5,7.5,7.5h368.632c4.143,0,7.5-3.358,7.5-7.5 V163.127C408.632,158.985,405.274,155.627,401.132,155.627z M285.755,170.627h46.438v27.875h-46.438V170.627z M101.438,256.443 h46.438v27.937h-46.438V256.443z M70.72,241.443v-27.941h46.438v27.941H70.72z M132.158,241.443v-27.941h46.438v27.941H132.158z M162.877,256.443h46.439v27.937h-46.439V256.443z M193.597,241.443v-27.941h46.438v27.941H193.597z M224.316,256.443h46.438 v27.937h-46.438V256.443z M255.035,241.443v-27.941h46.438v27.941H255.035z M285.755,256.443h46.438v27.937h-46.438V256.443z M316.474,241.443v-27.941h32.605v27.941H316.474z M224.316,170.627h46.438v27.875h-46.438V170.627z M162.877,170.627h46.439 v27.875h-46.439V170.627z M101.438,170.627h46.438v27.875h-46.438V170.627z M40,170.627h46.438v27.875H40V170.627z M40,213.502 h15.72v27.941H40V213.502z M40,256.443h46.438v27.937H40V256.443z M55.72,327.255H40V299.38h15.72V327.255z M117.158,327.255H70.72 V299.38h46.438V327.255z M178.597,327.255h-46.438V299.38h46.438V327.255z M240.035,327.255h-46.438V299.38h46.438V327.255z M301.474,327.255h-46.438V299.38h46.438V327.255z M362.912,327.255h-46.438V299.38h46.438V327.255z M393.632,327.255h-15.72 V299.38h15.72V327.255z M393.632,284.38h-46.438v-27.937h9.386c4.143,0,7.5-3.358,7.5-7.5v-35.441h29.553V284.38z M393.632,198.502 h-46.438v-27.875h46.438V198.502z"/> <path d="M270.119,76.745c-0.022-0.052-0.035-0.082-0.043-0.102C270.114,76.733,270.25,77.053,270.119,76.745z"/> <path d="M282.35,79.185c4.21-4.337,1.792-11.93-4.298-12.735c-5.578-0.738-10.16,5.034-7.932,10.295 C272.181,81.619,278.56,82.859,282.35,79.185z"/> <path d="M270.076,76.643C270.065,76.616,270.061,76.608,270.076,76.643L270.076,76.643z"/> </g> <symbol>
  <symbol id="read" viewBox="0 0 1024 1024"><path fill="#051bfd" d="M928 161H699.2c-49.1 0-97.1 14.1-138.4 40.7L512 233l-48.8-31.3A255.2 255.2 0 0 0 324.8 161H96c-17.7 0-32 14.3-32 32v568c0 17.7 14.3 32 32 32h228.8c49.1 0 97.1 14.1 138.4 40.7l44.4 28.6c1.3.8 2.8 1.3 4.3 1.3s3-.4 4.3-1.3l44.4-28.6C602 807.1 650.1 793 699.2 793H928c17.7 0 32-14.3 32-32V193c0-17.7-14.3-32-32-32M404 553.5c0 4.1-3.2 7.5-7.1 7.5H211.1c-3.9 0-7.1-3.4-7.1-7.5v-45c0-4.1 3.2-7.5 7.1-7.5h185.7c3.9 0 7.1 3.4 7.1 7.5v45zm0-140c0 4.1-3.2 7.5-7.1 7.5H211.1c-3.9 0-7.1-3.4-7.1-7.5v-45c0-4.1 3.2-7.5 7.1-7.5h185.7c3.9 0 7.1 3.4 7.1 7.5v45zm416 140c0 4.1-3.2 7.5-7.1 7.5H627.1c-3.9 0-7.1-3.4-7.1-7.5v-45c0-4.1 3.2-7.5 7.1-7.5h185.7c3.9 0 7.1 3.4 7.1 7.5v45zm0-140c0 4.1-3.2 7.5-7.1 7.5H627.1c-3.9 0-7.1-3.4-7.1-7.5v-45c0-4.1 3.2-7.5 7.1-7.5h185.7c3.9 0 7.1 3.4 7.1 7.5v45z"/></symbol>
  <symbol id="select" viewBox="0 0 24 24"><path fill="orange" d="M17 5H20L18.5 7L17 5M3 2H21C22.11 2 23 2.9 23 4V8C23 9.11 22.11 10 21 10H16V20C16 21.11 15.11 22 14 22H3C1.9 22 1 21.11 1 20V4C1 2.9 1.9 2 3 2M3 4V8H14V4H3M21 8V4H16V8H21M3 20H14V10H3V20M5 12H12V14H5V12M5 16H12V18H5V16Z" /></symbol>
  <symbol id="upload" viewBox="0 0 20 20"><path fill="cyan" d="M8 12h4V6h3l-5-5l-5 5h3zm11.338 1.532c-.21-.224-1.611-1.723-2.011-2.114A1.5 1.5 0 0 0 16.285 11h-1.757l3.064 2.994h-3.544a.27.27 0 0 0-.24.133L12.992 16H7.008l-.816-1.873a.28.28 0 0 0-.24-.133H2.408L5.471 11H3.715c-.397 0-.776.159-1.042.418c-.4.392-1.801 1.891-2.011 2.114c-.489.521-.758.936-.63 1.449l.561 3.074c.128.514.691.936 1.252.936h16.312c.561 0 1.124-.422 1.252-.936l.561-3.074c.126-.513-.142-.928-.632-1.449"/></symbol>
  <symbol id="wait" viewBox="0 0 128 128"><path fill="#8b5738" d="M23.36 116.32v-7.42c7.4-1.9 67.86 0 81.28 0v7.42c0 4.24-18.2 7.68-40.64 7.68s-40.64-3.44-40.64-7.68"/><ellipse cx="64" cy="108.48" fill="#ffb17a" rx="40.64" ry="7.68"/><ellipse cx="64" cy="108.48" fill="#cc8552" rx="40.64" ry="7.68"/><path fill="#81d4fa" d="M69.96 65.49c-.75-.31-1.07-.92-1.07-1.73s.25-1.39.98-1.64c4.61-1.86 27.77-10.73 27.77-38.36l-.18-4.82l-66.98-.08l-.12 5.07c0 26.79 23.08 36.25 27.68 38.11c.75.31 1.22.82 1.22 1.73s-.39 1.39-1.13 1.64c-4.61 1.86-27.77 10.73-27.77 38.36a6.95 6.95 0 0 0 5.34 6.5c5.04 1.19 14.38 2.57 30.53 2.57c13.91 0 21.7-1.01 26.03-2.03c3.08-.73 5.29-3.44 5.36-6.6l.01-.61c.01-26.79-23.06-36.25-27.67-38.11" opacity="0.75"/><path fill="#1d44b3" d="m97.46 18.94l-66.98-.08l-.11 4.52S37.62 27.1 64 27.1s33.63-3.72 33.63-3.72z" opacity="0.39"/><path fill="#8b5738" d="M23.36 17.94v-7.87c7.18-.96 70.91 0 81.28 0v7.87c0 3.36-18.2 6.08-40.64 6.08s-40.64-2.72-40.64-6.08"/><ellipse cx="64" cy="10.08" fill="#cc8552" rx="40.64" ry="6.08"/><path fill="#ffca28" d="M90.59 108.57c.92-.27 1.42-1.31.97-2.16c-3.14-5.94-16.54-6.11-21.61-17.27c-3.38-7.45-3.57-17.81-3.67-22.24c-.14-5.99 2.85-7.28 2.85-7.28c14.16-5.7 24.57-18.86 25.17-30.61c.06-1.17-22.18 9.17-29.83 10.66c-14.14 2.76-28.23-.87-28.31-.37c5.24 11.47 15.79 17.46 22.86 20.32c1.68.69 4.46 3.3 4.37 11.14c-.07 5.61-.77 20.4-10.44 26.69c-3.64 2.37-11.69 5.84-13.19 9.61c-.33.83.14 1.77 1.01 1.99c2.76.7 11.18 1.93 24.27 1.93c10.29.01 20.45-.93 25.55-2.41"/><path fill="#e2a610" d="M42.37 43.29c5.36 2.77 17.12 6.72 22.92 4.72s28.23-16.01 29-19c.96-3.7-26 5.71-35.49 7.91c-6.43 1.49-18.71.72-21.47 1.3c-2.75.57.11 2.52 5.04 5.07"/><path fill="#fff" d="M45.79 37.66c1.26 2.94 3.56 9.61.56 10.75c-3 1.15-7.39-3.11-9.47-7.39s-1.89-9.96 1.25-10.05s5.99 2.8 7.66 6.69M42.9 80.6c-3.13 3.66-5.48 8.58-4.59 13.33c.94 5.01 5.6 3.63 7.22 2.36c5.16-4.05 3.75-9.24 7.74-15.07c.68-1 3.52-4.13 3.12-6.1c-.24-1.17-2.96-1.77-7.91.71c-2.18 1.1-3.97 2.9-5.58 4.77" opacity="0.6"/></symbol>
  <symbol id="verify" viewBox="0 0 24 24"><path fill="lime" d="M23,12L20.56,9.22L20.9,5.54L17.29,4.72L15.4,1.54L12,3L8.6,1.54L6.71,4.72L3.1,5.53L3.44,9.21L1,12L3.44,14.78L3.1,18.47L6.71,19.29L8.6,22.47L12,21L15.4,22.46L17.29,19.28L20.9,18.46L20.56,14.78L23,12M10,17L6,13L7.41,11.59L10,14.17L16.59,7.58L18,9L10,17Z" /></symbol>
  <symbol id="navigation" viewBox="0 0 128 128"><path fill="#e2a610" d="M120.27 7.69C117.89 5.31 114.72 4 111.36 4s-6.53 1.31-8.91 3.69c-4.91 4.92-4.91 12.92 0 17.84c2.38 2.38 5.55 3.69 8.91 3.69c3.37 0 6.53-1.31 8.92-3.69c4.91-4.92 4.91-12.92-.01-17.84m-13.89 3.94c1.33-1.33 3.1-2.06 4.97-2.06s3.65.73 4.98 2.06c2.75 2.75 2.75 7.22 0 9.96a7 7 0 0 1-4.98 2.06c-1.88 0-3.65-.73-4.97-2.06c-2.74-2.74-2.74-7.21 0-9.96"/><path fill="#ffca28" d="m105.51 30.95l-8.47-8.48l6.04-6.05a3.44 3.44 0 0 1 4.86 0l3.62 3.62a3.43 3.43 0 0 1 0 4.85z"/><path fill="#e2a610" d="M107.69 28.76s1.33-2.67-2.24-6.24s-6.27-2.2-6.27-2.2l-2.14 2.15l8.47 8.48z"/><ellipse cx="62.37" cy="65.63" fill="#ffca28" rx="58.33" ry="58.37"/><ellipse cx="62.37" cy="65.63" fill="#fff" rx="47.29" ry="47.32"/><path fill="#e0c3ab" d="m68.78 72.05l-6.41 27.71l-6.41-27.71l-27.7-6.42l27.7-6.41l6.41-27.72l6.41 27.72l27.7 6.41z"/><path fill="#b2947c" d="m71.43 65.63l15.06 24.14L62.37 74.7L38.25 89.77l15.06-24.14L38.25 41.5l24.12 15.06L86.49 41.5z"/><path fill="#212121" d="M50.45 86.94s12.82-9.09 17.68-13.95C73 68.14 83.26 53.87 83.26 53.87c2.75-3.05 5.84-10.76 6.7-13c.09-.24-.14-.48-.38-.39c-1.96.75-8.17 3.2-12.5 5.96c-5.41 3.46-15.09 11.37-19.6 15.88s-10.37 13.2-13.7 17.93c-2.78 3.96-6.26 11.32-7.31 13.61c-.12.25.14.51.39.4c2.36-.99 10.01-4.36 13.59-7.32" opacity="0.32"/><path fill="#f44336" d="M82.66 52.46c2.86-3.65 5.57-10.84 6.37-13.07c.1-.27-.16-.53-.44-.44c-2.23.8-9.41 3.52-13.06 6.38c-4.35 3.41-18.82 15.3-18.82 15.3l10.65 10.66c.01 0 11.89-14.48 15.3-18.83"/><path fill="#2f7889" d="M41.41 79.48c-2.86 3.65-5.57 10.84-6.37 13.07c-.1.27.16.53.44.44c2.23-.8 9.41-3.52 13.06-6.38c4.35-3.41 18.82-15.3 18.82-15.3L56.7 60.65S44.82 75.12 41.41 79.48"/><ellipse cx="62.03" cy="65.98" fill="#94d1e0" rx="7.56" ry="7.57"/><path fill="#f44336" d="M90.46 37.52a3.44 3.44 0 0 1 0-4.86l3.56-3.56l4.86 4.86l-3.55 3.56a3.434 3.434 0 0 1-4.87 0"/><path fill="#b2947c" d="M34.28 93.74a3.44 3.44 0 0 1 0 4.86l-3.56 3.56l-4.86-4.86l3.55-3.56a3.45 3.45 0 0 1 4.87 0"/><path fill="#e0c3ab" d="M102.1 65.63c0-1.9 1.54-3.44 3.44-3.44h5.02v6.88h-5.02a3.44 3.44 0 0 1-3.44-3.44m-79.45 0c0 1.9-1.54 3.44-3.44 3.44h-5.02v-6.88h5.02c1.9 0 3.44 1.54 3.44 3.44"/><path fill="#b2947c" d="M90.46 93.74a3.44 3.44 0 0 1 4.86 0l3.55 3.56l-4.86 4.86l-3.56-3.56a3.45 3.45 0 0 1 .01-4.86M34.28 37.52a3.44 3.44 0 0 1-4.86 0l-3.55-3.56l4.86-4.86l3.56 3.56a3.45 3.45 0 0 1-.01 4.86"/><path fill="#e0c3ab" d="M62.37 105.38c1.9 0 3.44 1.54 3.44 3.44v5.03h-6.87v-5.03a3.425 3.425 0 0 1 3.43-3.44m0-79.5a3.44 3.44 0 0 1-3.44-3.44v-5.03h6.87v5.03c.01 1.9-1.53 3.44-3.43 3.44"/><ellipse cx="62.37" cy="65.63" fill="none" stroke="#e2a610" stroke-miterlimit="10" stroke-width="3" rx="47.29" ry="47.32"/><path fill="#fff59d" d="M8.72 64.92S6.6 54.18 12.25 40.88C20.59 21.26 38.6 10.46 57.97 9.62c14.53-.63 22.91 4.16 22.91 4.16s-11.82-.97-19.97-.61c-19.66.87-33.32 9.84-42.68 25.18c-7.7 12.64-9.51 26.57-9.51 26.57"/></symbol>
</svg>
